<?xml version="1.0" standalone="no"?>
<!DOCTYPE svg PUBLIC "-//W3C//DTD SVG 20010904//EN"
 "http://www.w3.org/TR/2001/REC-SVG-20010904/DTD/svg10.dtd">
<svg version="1.0" xmlns="http://www.w3.org/2000/svg"
 width="46.000000pt" height="48.000000pt" viewBox="0 0 46.000000 48.000000"
 preserveAspectRatio="xMidYMid meet">

<g transform="translate(0.000000,48.000000) scale(0.100000,-0.100000)"
fill="#000000" stroke="none">
<path d="M174 463 c-16 -3 -26 -18 -39 -59 -17 -53 -17 -54 -56 -54 l-39 0 0
-150 c0 -137 2 -150 19 -160 11 -6 89 -10 180 -10 202 0 191 -10 191 182 l0
137 -47 3 c-45 3 -48 5 -54 38 -14 65 -67 90 -155 73z m104 -43 c12 -12 22
-25 22 -30 0 -4 3 -15 6 -24 5 -14 -5 -16 -76 -16 -80 0 -81 0 -75 23 19 62
81 86 123 47z"/>
</g>
</svg>
